<svg width="20" height="20" viewBox="0 0 20 20" fill="none" xmlns="http://www.w3.org/2000/svg">
<path d="M12.025 15.6833C11.8667 15.6833 11.7083 15.625 11.5833 15.5C11.3417 15.2583 11.3417 14.8583 11.5833 14.6166L16.2 9.99998L11.5833 5.38331C11.3417 5.14164 11.3417 4.74164 11.5833 4.49998C11.825 4.25831 12.225 4.25831 12.4667 4.49998L17.525 9.55831C17.7667 9.79998 17.7667 10.2 17.525 10.4416L12.4667 15.5C12.3417 15.625 12.1834 15.6833 12.025 15.6833Z" fill="black"/>
<path d="M16.9417 10.625H2.91675C2.57508 10.625 2.29175 10.3417 2.29175 10C2.29175 9.65833 2.57508 9.375 2.91675 9.375H16.9417C17.2834 9.375 17.5667 9.65833 17.5667 10C17.5667 10.3417 17.2834 10.625 16.9417 10.625Z" fill="black"/>
</svg>
