<svg width="16" height="16" viewBox="0 0 16 16" fill="none" xmlns="http://www.w3.org/2000/svg">
<g clip-path="url(#clip0_92_195)">
<path fill-rule="evenodd" clip-rule="evenodd" d="M8.00009 2.69892C6.84352 1.74943 5.51985 1.29218 4.31581 1.31008C2.99062 1.32977 1.77782 1.93408 1.19069 3.12354C0.608232 4.30353 0.711705 5.9175 1.69055 7.82415C2.67082 9.73356 4.55719 12.0014 7.67564 14.5711C7.70819 14.5989 7.74367 14.622 7.78107 14.6402C7.92035 14.7081 8.08255 14.7066 8.21911 14.6401C8.25651 14.622 8.29199 14.5989 8.32455 14.5711C11.443 12.0014 13.3294 9.73356 14.3096 7.82415C15.2885 5.9175 15.392 4.30353 14.8095 3.12354C14.2224 1.93408 13.0096 1.32977 11.6844 1.31008C10.4803 1.29218 9.15667 1.74943 8.00009 2.69892Z" fill="black"/>
</g>
<defs>
<clipPath id="clip0_92_195">
<rect width="16" height="16" fill="white"/>
</clipPath>
</defs>
</svg>
