<svg width="24" height="25" viewBox="0 0 24 25" fill="none" xmlns="http://www.w3.org/2000/svg">
<path fill-rule="evenodd" clip-rule="evenodd" d="M12.0004 13.104C10.5394 13.104 9.35044 11.915 9.35044 10.454C9.35044 8.993 10.5394 7.804 12.0004 7.804C13.4614 7.804 14.6504 8.993 14.6504 10.454C14.6504 11.915 13.4614 13.104 12.0004 13.104ZM17.4314 4.723C15.9504 3.195 14.0214 2.354 11.9994 2.354C9.97744 2.354 8.04744 3.196 6.56544 4.725C5.06144 6.276 4.23544 8.36 4.30044 10.442C4.40444 13.786 6.66644 16.227 8.66244 18.38C10.1854 20.022 11.4994 21.44 11.4994 22.854H12.4994C12.4994 21.396 13.8164 19.996 15.3404 18.374C17.3344 16.253 19.5954 13.849 19.6994 10.442C19.7634 8.359 18.9364 6.274 17.4314 4.723Z" fill="black"/>
</svg>
