<svg width="18" height="18" viewBox="0 0 18 18" fill="none" xmlns="http://www.w3.org/2000/svg">
<path d="M11.25 17.0625H6.75C2.6775 17.0625 0.9375 15.3225 0.9375 11.25V6.75C0.9375 2.6775 2.6775 0.9375 6.75 0.9375H11.25C15.3225 0.9375 17.0625 2.6775 17.0625 6.75V11.25C17.0625 15.3225 15.3225 17.0625 11.25 17.0625ZM6.75 2.0625C3.2925 2.0625 2.0625 3.2925 2.0625 6.75V11.25C2.0625 14.7075 3.2925 15.9375 6.75 15.9375H11.25C14.7075 15.9375 15.9375 14.7075 15.9375 11.25V6.75C15.9375 3.2925 14.7075 2.0625 11.25 2.0625H6.75Z" fill="black"/>
<path d="M16.5 6.9375H1.52246C1.21496 6.9375 0.959961 6.6825 0.959961 6.375C0.959961 6.0675 1.21496 5.8125 1.52246 5.8125H16.5C16.8075 5.8125 17.0625 6.0675 17.0625 6.375C17.0625 6.6825 16.8075 6.9375 16.5 6.9375Z" fill="black"/>
<path d="M16.5 12.1875H1.52246C1.21496 12.1875 0.959961 11.9325 0.959961 11.625C0.959961 11.3175 1.21496 11.0625 1.52246 11.0625H16.5C16.8075 11.0625 17.0625 11.3175 17.0625 11.625C17.0625 11.9325 16.8075 12.1875 16.5 12.1875Z" fill="black"/>
<path d="M6.38245 17.055C6.07495 17.055 5.81995 16.8 5.81995 16.4925V1.50751C5.81995 1.20001 6.07495 0.945007 6.38245 0.945007C6.68995 0.945007 6.94495 1.20001 6.94495 1.50751V16.485C6.94495 16.8 6.69745 17.055 6.38245 17.055Z" fill="black"/>
<path d="M11.6324 17.055C11.3249 17.055 11.0699 16.8 11.0699 16.4925V1.50751C11.0699 1.20001 11.3249 0.945007 11.6324 0.945007C11.9399 0.945007 12.1949 1.20001 12.1949 1.50751V16.485C12.1949 16.8 11.9474 17.055 11.6324 17.055Z" fill="black"/>
</svg>
