<svg width="24" height="24" viewBox="0 0 24 24" fill="none" xmlns="http://www.w3.org/2000/svg">
<path fill-rule="evenodd" clip-rule="evenodd" d="M14.38 11.865H15.92V10.365H14.38V11.865ZM8.76996 11.865H10.31V10.365H8.76996V11.865ZM9.89996 4.375C10.53 3.745 11.41 3.375 12.3 3.375H12.32C14.1 3.375 15.54 4.755 15.69 6.495H8.92996C8.99996 5.705 9.32996 4.935 9.89996 4.375ZM20.34 6.495H17.19C17.04 3.925 14.92 1.875 12.32 1.875H12.3C11.01 1.875 9.74996 2.395 8.83996 3.305C7.98996 4.155 7.49996 5.305 7.42996 6.495H3.65996L2.70996 22.125H21.29L20.34 6.495Z" fill="black"/>
</svg>
